<?xml version="1.0" encoding="UTF-8" standalone="no"?>

<!DOCTYPE svg PUBLIC "-//W3C//DTD SVG 20010904//EN"
  "http://www.w3.org/TR/2001/REC-SVG-20010904/DTD/svg10.dtd">
<!--
Copyright (c) 2023
@author Oliver Merkel, Merkel(dot)Oliver(at)web(dot)de.
All rights reserved.

This graphics is licensed under a
http://creativecommons.org/licenses/by-nc-sa/4.0/deed.en_US
Creative Commons Attribution-NonCommercial-ShareAlike 4.0 International License.
-->
<svg version="1.1"
  xmlns:dc="http://purl.org/dc/elements/1.1/"
  xmlns:cc="http://creativecommons.org/ns#"
  xmlns:rdf="http://www.w3.org/1999/02/22-rdf-syntax-ns#"
  xmlns="http://www.w3.org/2000/svg" 
  xmlns:l="http://www.w3.org/1999/xlink"
  width="100%" height="100%"
  viewBox="-0.05 -1 1.1 1.1" >
  <title
     id="titleSierpinski">Sierpinski Triangle</title>
  <metadata
     id="metadata7">
    <rdf:RDF>
      <cc:Work
         rdf:about="">
        <dc:format>image/svg+xml</dc:format>
        <dc:type
           rdf:resource="http://purl.org/dc/dcmitype/StillImage" />
        <dc:title>Sierpinski Triangle</dc:title>
        <dc:date>2023-08-28</dc:date>
        <dc:creator>
          <cc:Agent>
            <dc:title>Oliver Merkel, Merkel(dot)Oliver (at)web(dot) de</dc:title>
          </cc:Agent>
        </dc:creator>
        <dc:rights>
          <cc:Agent>
            <dc:title>Oliver Merkel, Merkel(dot)Oliver (at)web(dot) de</dc:title>
          </cc:Agent>
        </dc:rights>
        <dc:publisher>
          <cc:Agent>
            <dc:title>Oliver Merkel, Merkel(dot)Oliver (at)web(dot) de</dc:title>
          </cc:Agent>
        </dc:publisher>
        <dc:language>en-GB</dc:language>
        <cc:license
           rdf:resource="http://creativecommons.org/licenses/by-nc-sa/4.0/" />
      </cc:Work>
      <cc:License
         rdf:about="http://creativecommons.org/licenses/by-nc-sa/4.0/">
        <cc:permits
           rdf:resource="http://creativecommons.org/ns#Reproduction" />
        <cc:permits
           rdf:resource="http://creativecommons.org/ns#Distribution" />
        <cc:requires
           rdf:resource="http://creativecommons.org/ns#Notice" />
        <cc:requires
           rdf:resource="http://creativecommons.org/ns#Attribution" />
        <cc:prohibits
           rdf:resource="http://creativecommons.org/ns#CommercialUse" />
        <cc:permits
           rdf:resource="http://creativecommons.org/ns#DerivativeWorks" />
        <cc:requires
           rdf:resource="http://creativecommons.org/ns#ShareAlike" />
      </cc:License>
    </rdf:RDF>
  </metadata>
  <style type="text/css"><![CDATA[
    path { stroke: #000; stroke-width: .1;
      stroke-linecap: round; stroke-linejoin: round;
      fill:#ccc; }
  ]]></style>
  <defs>
    <g id="iteration0">
      <path d='m0,0h1l-0.5,-0.86 z' />
    </g>
    <g id="iteration1">
      <use l:href="#iteration0" transform="matrix( .5 0 0 .5 0 0 )"/>
      <use l:href="#iteration0" transform="matrix( .5 0 0 .5 .5 0 )"/>
      <use l:href="#iteration0" transform="matrix( .5 0 0 .5 .25 -.43 )"/>
    </g>
    <g id="iteration2">
      <use l:href="#iteration1" transform="matrix( .5 0 0 .5 0 0 )"/>
      <use l:href="#iteration1" transform="matrix( .5 0 0 .5 .5 0 )"/>
      <use l:href="#iteration1" transform="matrix( .5 0 0 .5 .25 -.43 )"/>
    </g>
    <g id="iteration3">
      <use l:href="#iteration2" transform="matrix( .5 0 0 .5 0 0 )"/>
      <use l:href="#iteration2" transform="matrix( .5 0 0 .5 .5 0 )"/>
      <use l:href="#iteration2" transform="matrix( .5 0 0 .5 .25 -.43 )"/>
    </g>
    <g id="iteration4">
      <use l:href="#iteration3" transform="matrix( .5 0 0 .5 0 0 )"/>
      <use l:href="#iteration3" transform="matrix( .5 0 0 .5 .5 0 )"/>
      <use l:href="#iteration3" transform="matrix( .5 0 0 .5 .25 -.43 )"/>
    </g>
    <g id="iteration5">
      <use l:href="#iteration4" transform="matrix( .5 0 0 .5 0 0 )"/>
      <use l:href="#iteration4" transform="matrix( .5 0 0 .5 .5 0 )"/>
      <use l:href="#iteration4" transform="matrix( .5 0 0 .5 .25 -.43 )"/>
    </g>
    <g id="iteration6">
      <use l:href="#iteration5" transform="matrix( .5 0 0 .5 0 0 )"/>
      <use l:href="#iteration5" transform="matrix( .5 0 0 .5 .5 0 )"/>
      <use l:href="#iteration5" transform="matrix( .5 0 0 .5 .25 -.43 )"/>
    </g>
    <g id="iteration7">
      <use l:href="#iteration6" transform="matrix( .5 0 0 .5 0 0 )"/>
      <use l:href="#iteration6" transform="matrix( .5 0 0 .5 .5 0 )"/>
      <use l:href="#iteration6" transform="matrix( .5 0 0 .5 .25 -.43 )"/>
    </g>
    <g id="iteration8">
      <use l:href="#iteration7" transform="matrix( .5 0 0 .5 0 0 )"/>
      <use l:href="#iteration7" transform="matrix( .5 0 0 .5 .5 0 )"/>
      <use l:href="#iteration7" transform="matrix( .5 0 0 .5 .25 -.43 )"/>
    </g>
    <g id="iteration9">
      <use l:href="#iteration8" transform="matrix( .5 0 0 .5 0 0 )"/>
      <use l:href="#iteration8" transform="matrix( .5 0 0 .5 .5 0 )"/>
      <use l:href="#iteration8" transform="matrix( .5 0 0 .5 .25 -.43 )"/>
    </g>
    <g id="iteration10">
      <use l:href="#iteration9" transform="matrix( .5 0 0 .5 0 0 )"/>
      <use l:href="#iteration9" transform="matrix( .5 0 0 .5 .5 0 )"/>
      <use l:href="#iteration9" transform="matrix( .5 0 0 .5 .25 -.43 )"/>
    </g>
  </defs>
  <g>
    <use id="iterationdepth" l:href="#iteration10"/>
  </g>
</svg>